<svg width="130" height="49" viewBox="0 0 130 49" fill="none" xmlns="http://www.w3.org/2000/svg">
<path d="M24.149 9.726L23.994 14.841C23.994 17.6517 24.0767 20.173 24.242 22.405C24.4073 24.6163 24.7793 27.024 25.358 29.628C24.9033 30 24.18 30.186 23.188 30.186C21.266 30.186 20.305 29.349 20.305 27.675C20.305 26.2903 20.367 24.172 20.491 21.32C20.6357 18.468 20.708 16.236 20.708 14.624C19.592 16.236 18.414 18.2303 17.174 20.607C15.9547 22.963 15.345 24.4097 15.345 24.947C15.345 25.4843 15.3967 25.8977 15.5 26.187C15.0453 26.4763 14.4357 26.621 13.671 26.621C12.927 26.621 12.2967 26.4143 11.78 26.001C11.284 25.5877 10.8603 25.0193 10.509 24.296C10.1783 23.5727 9.579 22.157 8.711 20.049C7.86367 17.9203 7.08867 16.0913 6.386 14.562C5.84867 17.8893 5.58 20.8343 5.58 23.397C5.58 25.9597 5.66267 28.0367 5.828 29.628C5.16667 29.876 4.50533 30 3.844 30C2.52133 30 1.86 29.3387 1.86 28.016C1.86 27.0033 2.08733 24.9883 2.542 21.971C3.01733 18.933 3.255 16.3703 3.255 14.283C3.255 12.1957 3.14133 10.2427 2.914 8.424C4.03 8.13467 4.898 7.99 5.518 7.99C6.65467 7.99 7.41933 8.393 7.812 9.199C8.432 10.501 9.34133 12.578 10.54 15.43C11.7593 18.2613 12.7513 20.4417 13.516 21.971C13.7227 21.537 14.198 20.607 14.942 19.181C15.7067 17.7343 16.337 16.5047 16.833 15.492C17.3497 14.4587 17.8663 13.2393 18.383 11.834C18.9203 10.408 19.2613 9.168 19.406 8.114C20.15 7.90733 20.8733 7.804 21.576 7.804C22.2993 7.804 22.909 7.959 23.405 8.269C23.901 8.579 24.149 9.06467 24.149 9.726ZM42.5104 15.399C41.9524 17.7757 41.6734 20.1627 41.6734 22.56C41.6734 24.9367 41.9421 27.2927 42.4794 29.628C41.7354 29.876 40.9708 30 40.1854 30C39.4001 30 38.8524 29.7727 38.5424 29.318C38.2324 28.8427 38.0774 28.171 38.0774 27.303C38.0774 26.4143 38.2118 25.2053 38.4804 23.676C37.0131 26.8173 35.5974 28.8013 34.2334 29.628C33.6134 30 32.9728 30.186 32.3114 30.186C30.7408 30.186 29.5214 29.6073 28.6534 28.45C27.7854 27.272 27.3514 25.815 27.3514 24.079C27.3514 21.4337 28.0851 19.119 29.5524 17.135C31.0198 15.1303 32.9211 14.128 35.2564 14.128C37.6124 14.128 40.0304 14.5517 42.5104 15.399ZM38.4494 17.259C37.3541 16.9283 36.4241 16.763 35.6594 16.763C34.1094 16.763 32.9521 17.104 32.1874 17.786C31.4848 19.522 31.1334 21.289 31.1334 23.087C31.1334 24.0377 31.2781 24.9987 31.5674 25.97C31.8774 26.9413 32.3424 27.427 32.9624 27.427C33.6858 27.427 34.6158 26.3627 35.7524 24.234C36.8891 22.1053 37.7881 19.7803 38.4494 17.259ZM47.995 24.358C47.933 24.6473 47.902 24.885 47.902 25.071C47.902 25.9183 48.15 26.5693 48.646 27.024C49.1627 27.4787 49.8447 27.706 50.692 27.706C51.56 27.706 52.273 27.551 52.831 27.241C53.4097 26.9103 53.699 26.4247 53.699 25.784C53.699 25.1433 53.389 24.637 52.769 24.265C52.1697 23.8723 51.436 23.5623 50.568 23.335C49.7207 23.1077 48.863 22.8597 47.995 22.591C47.127 22.3017 46.383 21.8573 45.763 21.258C45.1637 20.6587 44.864 19.9043 44.864 18.995C44.864 17.569 45.6184 16.3703 47.127 15.399C48.6357 14.4277 50.2167 13.942 51.87 13.942C53.6887 13.942 55.0734 14.314 56.024 15.058C56.582 15.492 56.861 16.0707 56.861 16.794C56.861 17.4967 56.582 18.0753 56.024 18.53C55.4867 18.964 54.8254 19.181 54.04 19.181C53.8747 19.181 53.668 19.1603 53.42 19.119C53.482 18.8503 53.513 18.6127 53.513 18.406C53.513 17.8067 53.2857 17.352 52.831 17.042C52.3764 16.732 51.7564 16.577 50.971 16.577C50.2064 16.577 49.5037 16.732 48.863 17.042C48.615 17.3727 48.491 17.7963 48.491 18.313C48.491 18.8297 48.7907 19.2533 49.39 19.584C49.9894 19.894 50.7127 20.173 51.56 20.421C52.428 20.6483 53.296 20.917 54.164 21.227C55.032 21.5163 55.7657 21.9813 56.365 22.622C56.9644 23.242 57.264 24.0273 57.264 24.978C57.264 26.528 56.489 27.8197 54.939 28.853C53.4097 29.8657 51.8287 30.372 50.196 30.372C48.5634 30.372 47.2097 30.0827 46.135 29.504C45.081 28.9047 44.554 28.0057 44.554 26.807C44.554 26.063 44.8227 25.4637 45.36 25.009C45.918 24.5337 46.5897 24.296 47.375 24.296C47.5404 24.296 47.747 24.3167 47.995 24.358ZM60.5524 9.757C61.2138 9.42633 61.8854 9.261 62.5674 9.261C63.2494 9.261 63.7971 9.478 64.2104 9.912C64.6444 10.346 64.8614 10.9867 64.8614 11.834C64.8614 12.6813 64.8098 13.6423 64.7064 14.717C66.2564 14.717 67.7341 14.5 69.1394 14.066C69.3874 14.4793 69.5114 14.965 69.5114 15.523C69.5114 16.0603 69.2634 16.5047 68.7674 16.856C68.2921 17.1867 67.8064 17.352 67.3104 17.352C66.8144 17.352 66.2564 17.29 65.6364 17.166C65.0164 17.042 64.6134 16.9697 64.4274 16.949C64.4068 17.135 64.3448 17.507 64.2414 18.065C64.1588 18.623 64.0864 19.1087 64.0244 19.522C63.8591 20.6587 63.7764 21.878 63.7764 23.18C63.7764 26.0113 64.6961 27.427 66.5354 27.427C67.2174 27.427 68.0028 27.1893 68.8914 26.714C69.1601 27.1067 69.2944 27.613 69.2944 28.233C69.2944 28.853 68.9534 29.3387 68.2714 29.69C67.6101 30.0207 66.8144 30.186 65.8844 30.186C62.2471 30.186 60.4284 28.1193 60.4284 23.986C60.4284 23.3867 60.5111 22.3017 60.6764 20.731C60.8624 19.1603 60.9554 17.8893 60.9554 16.918C59.9634 16.98 59.1678 17.1557 58.5684 17.445C58.3204 17.073 58.1964 16.6493 58.1964 16.174C58.1964 15.678 58.3721 15.275 58.7234 14.965C59.0748 14.6343 59.5088 14.469 60.0254 14.469C60.5421 14.469 60.8831 14.4793 61.0484 14.5C61.0691 14.3347 61.0794 14.1177 61.0794 13.849C61.0794 12.299 60.9038 10.935 60.5524 9.757ZM74.3639 22.963C74.3639 24.451 74.6016 25.629 75.0769 26.497C75.5522 27.3443 76.3479 27.768 77.4639 27.768C78.5799 27.768 79.4479 27.396 80.0679 26.652C80.7086 25.8873 81.0289 24.9677 81.0289 23.893C81.7316 23.893 82.3412 24.0687 82.8579 24.42C83.3746 24.7713 83.6329 25.257 83.6329 25.877C83.6329 27.1583 82.9509 28.233 81.5869 29.101C80.2229 29.9483 78.7866 30.372 77.2779 30.372C74.9219 30.372 73.2169 29.7417 72.1629 28.481C71.1089 27.1997 70.5819 25.3087 70.5819 22.808C70.5819 20.3073 71.2846 18.2097 72.6899 16.515C74.1159 14.7997 76.0069 13.942 78.3629 13.942C79.9749 13.942 81.2666 14.314 82.2379 15.058C83.2299 15.7813 83.7259 16.918 83.7259 18.468C83.7259 19.9973 83.0232 21.1547 81.6179 21.94C80.2332 22.7047 78.5386 23.087 76.5339 23.087C75.8312 23.087 75.1079 23.0457 74.3639 22.963ZM74.3949 20.514C75.0149 20.638 75.6659 20.7 76.3479 20.7C77.8359 20.7 79.0862 20.421 80.0989 19.863C80.2229 19.367 80.2849 18.9743 80.2849 18.685C80.2849 17.9617 80.0266 17.414 79.5099 17.042C78.9932 16.67 78.2802 16.484 77.3709 16.484C76.4822 16.484 75.6762 16.7733 74.9529 17.352C74.5809 18.4267 74.3949 19.4807 74.3949 20.514ZM91.2071 29.628C90.5664 29.876 89.8844 30 89.1611 30C88.4378 30 87.8488 29.8347 87.3941 29.504C86.9601 29.1527 86.7431 28.6773 86.7431 28.078C86.7431 27.458 86.8361 26.342 87.0221 24.73C87.2081 23.118 87.3011 21.5577 87.3011 20.049C87.3011 18.5197 87.0634 16.732 86.5881 14.686C87.2494 14.438 87.9004 14.314 88.5411 14.314C89.1818 14.314 89.7294 14.531 90.1841 14.965C90.6594 15.399 90.8971 15.9777 90.8971 16.701C90.8971 17.073 90.8351 17.631 90.7111 18.375C90.5871 19.0983 90.5148 19.646 90.4941 20.018C91.3001 18.1787 92.2508 16.7423 93.3461 15.709C94.4621 14.655 95.5678 14.128 96.6631 14.128C97.4278 14.128 98.0374 14.3967 98.4921 14.934C98.9468 15.4713 99.1741 16.1533 99.1741 16.98C99.1741 17.786 98.9674 18.4473 98.5541 18.964C98.1408 19.46 97.6241 19.708 97.0041 19.708C96.4048 19.708 95.9191 19.646 95.5471 19.522C95.6091 19.274 95.6401 19.0467 95.6401 18.84C95.6401 17.9927 95.3404 17.569 94.7411 17.569C93.8318 17.569 92.9741 18.4887 92.1681 20.328C91.3828 22.1467 90.8558 23.8517 90.5871 25.443C90.6904 26.993 90.8971 28.388 91.2071 29.628Z" fill="white"/>
<path d="M38.1406 42.2871H39.2656C39.207 42.8262 39.0527 43.3086 38.8027 43.7344C38.5527 44.1602 38.1992 44.498 37.7422 44.748C37.2852 44.9941 36.7148 45.1172 36.0312 45.1172C35.5312 45.1172 35.0762 45.0234 34.666 44.8359C34.2598 44.6484 33.9102 44.3828 33.6172 44.0391C33.3242 43.6914 33.0977 43.2754 32.9375 42.791C32.7812 42.3027 32.7031 41.7598 32.7031 41.1621V40.3125C32.7031 39.7148 32.7812 39.1738 32.9375 38.6895C33.0977 38.2012 33.3262 37.7832 33.623 37.4355C33.9238 37.0879 34.2852 36.8203 34.707 36.6328C35.1289 36.4453 35.6035 36.3516 36.1309 36.3516C36.7754 36.3516 37.3203 36.4727 37.7656 36.7148C38.2109 36.957 38.5566 37.293 38.8027 37.7227C39.0527 38.1484 39.207 38.6426 39.2656 39.2051H38.1406C38.0859 38.8066 37.9844 38.4648 37.8359 38.1797C37.6875 37.8906 37.4766 37.668 37.2031 37.5117C36.9297 37.3555 36.5723 37.2773 36.1309 37.2773C35.752 37.2773 35.418 37.3496 35.1289 37.4941C34.8438 37.6387 34.6035 37.8438 34.4082 38.1094C34.2168 38.375 34.0723 38.6934 33.9746 39.0645C33.877 39.4355 33.8281 39.8477 33.8281 40.3008V41.1621C33.8281 41.5801 33.8711 41.9727 33.957 42.3398C34.0469 42.707 34.1816 43.0293 34.3613 43.3066C34.541 43.584 34.7695 43.8027 35.0469 43.9629C35.3242 44.1191 35.6523 44.1973 36.0312 44.1973C36.5117 44.1973 36.8945 44.1211 37.1797 43.9688C37.4648 43.8164 37.6797 43.5977 37.8242 43.3125C37.9727 43.0273 38.0781 42.6855 38.1406 42.2871ZM41.8203 36V45H40.7305V36H41.8203ZM46.1914 45.1172C45.75 45.1172 45.3496 45.043 44.9902 44.8945C44.6348 44.7422 44.3281 44.5293 44.0703 44.2559C43.8164 43.9824 43.6211 43.6582 43.4844 43.2832C43.3477 42.9082 43.2793 42.498 43.2793 42.0527V41.8066C43.2793 41.291 43.3555 40.832 43.5078 40.4297C43.6602 40.0234 43.8672 39.6797 44.1289 39.3984C44.3906 39.1172 44.6875 38.9043 45.0195 38.7598C45.3516 38.6152 45.6953 38.543 46.0508 38.543C46.5039 38.543 46.8945 38.6211 47.2227 38.7773C47.5547 38.9336 47.8262 39.1523 48.0371 39.4336C48.248 39.7109 48.4043 40.0391 48.5059 40.418C48.6074 40.793 48.6582 41.2031 48.6582 41.6484V42.1348H43.9238V41.25H47.5742V41.168C47.5586 40.8867 47.5 40.6133 47.3984 40.3477C47.3008 40.082 47.1445 39.8633 46.9297 39.6914C46.7148 39.5195 46.4219 39.4336 46.0508 39.4336C45.8047 39.4336 45.5781 39.4863 45.3711 39.5918C45.1641 39.6934 44.9863 39.8457 44.8379 40.0488C44.6895 40.252 44.5742 40.5 44.4922 40.793C44.4102 41.0859 44.3691 41.4238 44.3691 41.8066V42.0527C44.3691 42.3535 44.4102 42.6367 44.4922 42.9023C44.5781 43.1641 44.7012 43.3945 44.8613 43.5938C45.0254 43.793 45.2227 43.9492 45.4531 44.0625C45.6875 44.1758 45.9531 44.2324 46.25 44.2324C46.6328 44.2324 46.957 44.1543 47.2227 43.998C47.4883 43.8418 47.7207 43.6328 47.9199 43.3711L48.5762 43.8926C48.4395 44.0996 48.2656 44.2969 48.0547 44.4844C47.8438 44.6719 47.584 44.8242 47.2754 44.9414C46.9707 45.0586 46.6094 45.1172 46.1914 45.1172ZM53.6621 43.916V40.6523C53.6621 40.4023 53.6113 40.1855 53.5098 40.002C53.4121 39.8145 53.2637 39.6699 53.0645 39.5684C52.8652 39.4668 52.6191 39.416 52.3262 39.416C52.0527 39.416 51.8125 39.4629 51.6055 39.5566C51.4023 39.6504 51.2422 39.7734 51.125 39.9258C51.0117 40.0781 50.9551 40.2422 50.9551 40.418H49.8711C49.8711 40.1914 49.9297 39.9668 50.0469 39.7441C50.1641 39.5215 50.332 39.3203 50.5508 39.1406C50.7734 38.957 51.0391 38.8125 51.3477 38.707C51.6602 38.5977 52.0078 38.543 52.3906 38.543C52.8516 38.543 53.2578 38.6211 53.6094 38.7773C53.9648 38.9336 54.2422 39.1699 54.4414 39.4863C54.6445 39.7988 54.7461 40.1914 54.7461 40.6641V43.6172C54.7461 43.8281 54.7637 44.0527 54.7988 44.291C54.8379 44.5293 54.8945 44.7344 54.9688 44.9062V45H53.8379C53.7832 44.875 53.7402 44.709 53.709 44.502C53.6777 44.291 53.6621 44.0957 53.6621 43.916ZM53.8496 41.1562L53.8613 41.918H52.7656C52.457 41.918 52.1816 41.9434 51.9395 41.9941C51.6973 42.041 51.4941 42.1133 51.3301 42.2109C51.166 42.3086 51.041 42.4316 50.9551 42.5801C50.8691 42.7246 50.8262 42.8945 50.8262 43.0898C50.8262 43.2891 50.8711 43.4707 50.9609 43.6348C51.0508 43.7988 51.1855 43.9297 51.3652 44.0273C51.5488 44.1211 51.7734 44.168 52.0391 44.168C52.3711 44.168 52.6641 44.0977 52.918 43.957C53.1719 43.8164 53.373 43.6445 53.5215 43.4414C53.6738 43.2383 53.7559 43.041 53.7676 42.8496L54.2305 43.3711C54.2031 43.5352 54.1289 43.7168 54.0078 43.916C53.8867 44.1152 53.7246 44.3066 53.5215 44.4902C53.3223 44.6699 53.084 44.8203 52.8066 44.9414C52.5332 45.0586 52.2246 45.1172 51.8809 45.1172C51.4512 45.1172 51.0742 45.0332 50.75 44.8652C50.4297 44.6973 50.1797 44.4727 50 44.1914C49.8242 43.9062 49.7363 43.5879 49.7363 43.2363C49.7363 42.8965 49.8027 42.5977 49.9355 42.3398C50.0684 42.0781 50.2598 41.8613 50.5098 41.6895C50.7598 41.5137 51.0605 41.3809 51.4121 41.291C51.7637 41.2012 52.1562 41.1562 52.5898 41.1562H53.8496ZM57.5352 40.0137V45H56.4512V38.6602H57.4766L57.5352 40.0137ZM57.2773 41.5898L56.8262 41.5723C56.8301 41.1387 56.8945 40.7383 57.0195 40.3711C57.1445 40 57.3203 39.6777 57.5469 39.4043C57.7734 39.1309 58.043 38.9199 58.3555 38.7715C58.6719 38.6191 59.0215 38.543 59.4043 38.543C59.7168 38.543 59.998 38.5859 60.248 38.6719C60.498 38.7539 60.7109 38.8867 60.8867 39.0703C61.0664 39.2539 61.2031 39.4922 61.2969 39.7852C61.3906 40.0742 61.4375 40.4277 61.4375 40.8457V45H60.3477V40.834C60.3477 40.502 60.2988 40.2363 60.2012 40.0371C60.1035 39.834 59.9609 39.6875 59.7734 39.5977C59.5859 39.5039 59.3555 39.457 59.082 39.457C58.8125 39.457 58.5664 39.5137 58.3438 39.627C58.125 39.7402 57.9355 39.8965 57.7754 40.0957C57.6191 40.2949 57.4961 40.5234 57.4062 40.7812C57.3203 41.0352 57.2773 41.3047 57.2773 41.5898ZM64.2617 38.6602V45H63.1719V38.6602H64.2617ZM63.0898 36.9785C63.0898 36.8027 63.1426 36.6543 63.248 36.5332C63.3574 36.4121 63.5176 36.3516 63.7285 36.3516C63.9355 36.3516 64.0938 36.4121 64.2031 36.5332C64.3164 36.6543 64.373 36.8027 64.373 36.9785C64.373 37.1465 64.3164 37.291 64.2031 37.4121C64.0938 37.5293 63.9355 37.5879 63.7285 37.5879C63.5176 37.5879 63.3574 37.5293 63.248 37.4121C63.1426 37.291 63.0898 37.1465 63.0898 36.9785ZM67.0859 40.0137V45H66.002V38.6602H67.0273L67.0859 40.0137ZM66.8281 41.5898L66.377 41.5723C66.3809 41.1387 66.4453 40.7383 66.5703 40.3711C66.6953 40 66.8711 39.6777 67.0977 39.4043C67.3242 39.1309 67.5938 38.9199 67.9062 38.7715C68.2227 38.6191 68.5723 38.543 68.9551 38.543C69.2676 38.543 69.5488 38.5859 69.7988 38.6719C70.0488 38.7539 70.2617 38.8867 70.4375 39.0703C70.6172 39.2539 70.7539 39.4922 70.8477 39.7852C70.9414 40.0742 70.9883 40.4277 70.9883 40.8457V45H69.8984V40.834C69.8984 40.502 69.8496 40.2363 69.752 40.0371C69.6543 39.834 69.5117 39.6875 69.3242 39.5977C69.1367 39.5039 68.9062 39.457 68.6328 39.457C68.3633 39.457 68.1172 39.5137 67.8945 39.627C67.6758 39.7402 67.4863 39.8965 67.3262 40.0957C67.1699 40.2949 67.0469 40.5234 66.957 40.7812C66.8711 41.0352 66.8281 41.3047 66.8281 41.5898ZM76.7422 38.6602H77.7266V44.8652C77.7266 45.4238 77.6133 45.9004 77.3867 46.2949C77.1602 46.6895 76.8438 46.9883 76.4375 47.1914C76.0352 47.3984 75.5703 47.502 75.043 47.502C74.8242 47.502 74.5664 47.4668 74.2695 47.3965C73.9766 47.3301 73.6875 47.2148 73.4023 47.0508C73.1211 46.8906 72.8848 46.6738 72.6934 46.4004L73.2617 45.7559C73.5273 46.0762 73.8047 46.2988 74.0938 46.4238C74.3867 46.5488 74.6758 46.6113 74.9609 46.6113C75.3047 46.6113 75.6016 46.5469 75.8516 46.418C76.1016 46.2891 76.2949 46.0977 76.4316 45.8438C76.5723 45.5938 76.6426 45.2852 76.6426 44.918V40.0547L76.7422 38.6602ZM72.377 41.9004V41.7773C72.377 41.293 72.4336 40.8535 72.5469 40.459C72.6641 40.0605 72.8301 39.7188 73.0449 39.4336C73.2637 39.1484 73.5273 38.9297 73.8359 38.7773C74.1445 38.6211 74.4922 38.543 74.8789 38.543C75.2773 38.543 75.625 38.6133 75.9219 38.7539C76.2227 38.8906 76.4766 39.0918 76.6836 39.3574C76.8945 39.6191 77.0605 39.9355 77.1816 40.3066C77.3027 40.6777 77.3867 41.0977 77.4336 41.5664V42.1055C77.3906 42.5703 77.3066 42.9883 77.1816 43.3594C77.0605 43.7305 76.8945 44.0469 76.6836 44.3086C76.4766 44.5703 76.2227 44.7715 75.9219 44.9121C75.6211 45.0488 75.2695 45.1172 74.8672 45.1172C74.4883 45.1172 74.1445 45.0371 73.8359 44.877C73.5312 44.7168 73.2695 44.4922 73.0508 44.2031C72.832 43.9141 72.6641 43.5742 72.5469 43.1836C72.4336 42.7891 72.377 42.3613 72.377 41.9004ZM73.4609 41.7773V41.9004C73.4609 42.2168 73.4922 42.5137 73.5547 42.791C73.6211 43.0684 73.7207 43.3125 73.8535 43.5234C73.9902 43.7344 74.1641 43.9004 74.375 44.0215C74.5859 44.1387 74.8379 44.1973 75.1309 44.1973C75.4902 44.1973 75.7871 44.1211 76.0215 43.9688C76.2559 43.8164 76.4414 43.6152 76.5781 43.3652C76.7188 43.1152 76.8281 42.8438 76.9062 42.5508V41.1387C76.8633 40.9238 76.7969 40.7168 76.707 40.5176C76.6211 40.3145 76.5078 40.1348 76.3672 39.9785C76.2305 39.8184 76.0605 39.6914 75.8574 39.5977C75.6543 39.5039 75.416 39.457 75.1426 39.457C74.8457 39.457 74.5898 39.5195 74.375 39.6445C74.1641 39.7656 73.9902 39.9336 73.8535 40.1484C73.7207 40.3594 73.6211 40.6055 73.5547 40.8867C73.4922 41.1641 73.4609 41.4609 73.4609 41.7773ZM87.0605 42.8438C87.0605 42.6445 87.0293 42.4688 86.9668 42.3164C86.9082 42.1602 86.8027 42.0195 86.6504 41.8945C86.502 41.7695 86.2949 41.6504 86.0293 41.5371C85.7676 41.4238 85.4355 41.3086 85.0332 41.1914C84.6113 41.0664 84.2305 40.9277 83.8906 40.7754C83.5508 40.6191 83.2598 40.4414 83.0176 40.2422C82.7754 40.043 82.5898 39.8145 82.4609 39.5566C82.332 39.2988 82.2676 39.0039 82.2676 38.6719C82.2676 38.3398 82.3359 38.0332 82.4727 37.752C82.6094 37.4707 82.8047 37.2266 83.0586 37.0195C83.3164 36.8086 83.623 36.6445 83.9785 36.5273C84.334 36.4102 84.7305 36.3516 85.168 36.3516C85.8086 36.3516 86.3516 36.4746 86.7969 36.7207C87.2461 36.9629 87.5879 37.2812 87.8223 37.6758C88.0566 38.0664 88.1738 38.4844 88.1738 38.9297H87.0488C87.0488 38.6094 86.9805 38.3262 86.8438 38.0801C86.707 37.8301 86.5 37.6348 86.2227 37.4941C85.9453 37.3496 85.5938 37.2773 85.168 37.2773C84.7656 37.2773 84.4336 37.3379 84.1719 37.459C83.9102 37.5801 83.7148 37.7441 83.5859 37.9512C83.4609 38.1582 83.3984 38.3945 83.3984 38.6602C83.3984 38.8398 83.4355 39.0039 83.5098 39.1523C83.5879 39.2969 83.707 39.4316 83.8672 39.5566C84.0312 39.6816 84.2383 39.7969 84.4883 39.9023C84.7422 40.0078 85.0449 40.1094 85.3965 40.207C85.8809 40.3438 86.2988 40.4961 86.6504 40.6641C87.002 40.832 87.291 41.0215 87.5176 41.2324C87.748 41.4395 87.918 41.6758 88.0273 41.9414C88.1406 42.2031 88.1973 42.5 88.1973 42.832C88.1973 43.1797 88.127 43.4941 87.9863 43.7754C87.8457 44.0566 87.6445 44.2969 87.3828 44.4961C87.1211 44.6953 86.8066 44.8496 86.4395 44.959C86.0762 45.0645 85.6699 45.1172 85.2207 45.1172C84.8262 45.1172 84.4375 45.0625 84.0547 44.9531C83.6758 44.8438 83.3301 44.6797 83.0176 44.4609C82.709 44.2422 82.4609 43.9727 82.2734 43.6523C82.0898 43.3281 81.998 42.9531 81.998 42.5273H83.123C83.123 42.8203 83.1797 43.0723 83.293 43.2832C83.4062 43.4902 83.5605 43.6621 83.7559 43.7988C83.9551 43.9355 84.1797 44.0371 84.4297 44.1035C84.6836 44.166 84.9473 44.1973 85.2207 44.1973C85.6152 44.1973 85.9492 44.1426 86.2227 44.0332C86.4961 43.9238 86.7031 43.7676 86.8438 43.5645C86.9883 43.3613 87.0605 43.1211 87.0605 42.8438ZM92.1055 45.1172C91.6641 45.1172 91.2637 45.043 90.9043 44.8945C90.5488 44.7422 90.2422 44.5293 89.9844 44.2559C89.7305 43.9824 89.5352 43.6582 89.3984 43.2832C89.2617 42.9082 89.1934 42.498 89.1934 42.0527V41.8066C89.1934 41.291 89.2695 40.832 89.4219 40.4297C89.5742 40.0234 89.7812 39.6797 90.043 39.3984C90.3047 39.1172 90.6016 38.9043 90.9336 38.7598C91.2656 38.6152 91.6094 38.543 91.9648 38.543C92.418 38.543 92.8086 38.6211 93.1367 38.7773C93.4688 38.9336 93.7402 39.1523 93.9512 39.4336C94.1621 39.7109 94.3184 40.0391 94.4199 40.418C94.5215 40.793 94.5723 41.2031 94.5723 41.6484V42.1348H89.8379V41.25H93.4883V41.168C93.4727 40.8867 93.4141 40.6133 93.3125 40.3477C93.2148 40.082 93.0586 39.8633 92.8438 39.6914C92.6289 39.5195 92.3359 39.4336 91.9648 39.4336C91.7188 39.4336 91.4922 39.4863 91.2852 39.5918C91.0781 39.6934 90.9004 39.8457 90.752 40.0488C90.6035 40.252 90.4883 40.5 90.4062 40.793C90.3242 41.0859 90.2832 41.4238 90.2832 41.8066V42.0527C90.2832 42.3535 90.3242 42.6367 90.4062 42.9023C90.4922 43.1641 90.6152 43.3945 90.7754 43.5938C90.9395 43.793 91.1367 43.9492 91.3672 44.0625C91.6016 44.1758 91.8672 44.2324 92.1641 44.2324C92.5469 44.2324 92.8711 44.1543 93.1367 43.998C93.4023 43.8418 93.6348 43.6328 93.834 43.3711L94.4902 43.8926C94.3535 44.0996 94.1797 44.2969 93.9688 44.4844C93.7578 44.6719 93.498 44.8242 93.1895 44.9414C92.8848 45.0586 92.5234 45.1172 92.1055 45.1172ZM96.9219 39.6562V45H95.8379V38.6602H96.8926L96.9219 39.6562ZM98.9023 38.625L98.8965 39.6328C98.8066 39.6133 98.7207 39.6016 98.6387 39.5977C98.5605 39.5898 98.4707 39.5859 98.3691 39.5859C98.1191 39.5859 97.8984 39.625 97.707 39.7031C97.5156 39.7812 97.3535 39.8906 97.2207 40.0312C97.0879 40.1719 96.9824 40.3398 96.9043 40.5352C96.8301 40.7266 96.7812 40.9375 96.7578 41.168L96.4531 41.3438C96.4531 40.9609 96.4902 40.6016 96.5645 40.2656C96.6426 39.9297 96.7617 39.6328 96.9219 39.375C97.082 39.1133 97.2852 38.9102 97.5312 38.7656C97.7812 38.6172 98.0781 38.543 98.4219 38.543C98.5 38.543 98.5898 38.5527 98.6914 38.5723C98.793 38.5879 98.8633 38.6055 98.9023 38.625ZM101.938 44.0215L103.672 38.6602H104.779L102.5 45H101.773L101.938 44.0215ZM100.49 38.6602L102.277 44.0508L102.4 45H101.674L99.377 38.6602H100.49ZM107 38.6602V45H105.91V38.6602H107ZM105.828 36.9785C105.828 36.8027 105.881 36.6543 105.986 36.5332C106.096 36.4121 106.256 36.3516 106.467 36.3516C106.674 36.3516 106.832 36.4121 106.941 36.5332C107.055 36.6543 107.111 36.8027 107.111 36.9785C107.111 37.1465 107.055 37.291 106.941 37.4121C106.832 37.5293 106.674 37.5879 106.467 37.5879C106.256 37.5879 106.096 37.5293 105.986 37.4121C105.881 37.291 105.828 37.1465 105.828 36.9785ZM111.277 44.2266C111.535 44.2266 111.773 44.1738 111.992 44.0684C112.211 43.9629 112.391 43.8184 112.531 43.6348C112.672 43.4473 112.752 43.2344 112.771 42.9961H113.803C113.783 43.3711 113.656 43.7207 113.422 44.0449C113.191 44.3652 112.889 44.625 112.514 44.8242C112.139 45.0195 111.727 45.1172 111.277 45.1172C110.801 45.1172 110.385 45.0332 110.029 44.8652C109.678 44.6973 109.385 44.4668 109.15 44.1738C108.92 43.8809 108.746 43.5449 108.629 43.166C108.516 42.7832 108.459 42.3789 108.459 41.9531V41.707C108.459 41.2812 108.516 40.8789 108.629 40.5C108.746 40.1172 108.92 39.7793 109.15 39.4863C109.385 39.1934 109.678 38.9629 110.029 38.7949C110.385 38.627 110.801 38.543 111.277 38.543C111.773 38.543 112.207 38.6445 112.578 38.8477C112.949 39.0469 113.24 39.3203 113.451 39.668C113.666 40.0117 113.783 40.4023 113.803 40.8398H112.771C112.752 40.5781 112.678 40.3418 112.549 40.1309C112.424 39.9199 112.252 39.752 112.033 39.627C111.818 39.498 111.566 39.4336 111.277 39.4336C110.945 39.4336 110.666 39.5 110.439 39.6328C110.217 39.7617 110.039 39.9375 109.906 40.1602C109.777 40.3789 109.684 40.623 109.625 40.8926C109.57 41.1582 109.543 41.4297 109.543 41.707V41.9531C109.543 42.2305 109.57 42.5039 109.625 42.7734C109.68 43.043 109.771 43.2871 109.9 43.5059C110.033 43.7246 110.211 43.9004 110.434 44.0332C110.66 44.1621 110.941 44.2266 111.277 44.2266ZM117.652 45.1172C117.211 45.1172 116.811 45.043 116.451 44.8945C116.096 44.7422 115.789 44.5293 115.531 44.2559C115.277 43.9824 115.082 43.6582 114.945 43.2832C114.809 42.9082 114.74 42.498 114.74 42.0527V41.8066C114.74 41.291 114.816 40.832 114.969 40.4297C115.121 40.0234 115.328 39.6797 115.59 39.3984C115.852 39.1172 116.148 38.9043 116.48 38.7598C116.812 38.6152 117.156 38.543 117.512 38.543C117.965 38.543 118.355 38.6211 118.684 38.7773C119.016 38.9336 119.287 39.1523 119.498 39.4336C119.709 39.7109 119.865 40.0391 119.967 40.418C120.068 40.793 120.119 41.2031 120.119 41.6484V42.1348H115.385V41.25H119.035V41.168C119.02 40.8867 118.961 40.6133 118.859 40.3477C118.762 40.082 118.605 39.8633 118.391 39.6914C118.176 39.5195 117.883 39.4336 117.512 39.4336C117.266 39.4336 117.039 39.4863 116.832 39.5918C116.625 39.6934 116.447 39.8457 116.299 40.0488C116.15 40.252 116.035 40.5 115.953 40.793C115.871 41.0859 115.83 41.4238 115.83 41.8066V42.0527C115.83 42.3535 115.871 42.6367 115.953 42.9023C116.039 43.1641 116.162 43.3945 116.322 43.5938C116.486 43.793 116.684 43.9492 116.914 44.0625C117.148 44.1758 117.414 44.2324 117.711 44.2324C118.094 44.2324 118.418 44.1543 118.684 43.998C118.949 43.8418 119.182 43.6328 119.381 43.3711L120.037 43.8926C119.9 44.0996 119.727 44.2969 119.516 44.4844C119.305 44.6719 119.045 44.8242 118.736 44.9414C118.432 45.0586 118.07 45.1172 117.652 45.1172ZM125.076 43.3184C125.076 43.1621 125.041 43.0176 124.971 42.8848C124.904 42.748 124.766 42.625 124.555 42.5156C124.348 42.4023 124.035 42.3047 123.617 42.2227C123.266 42.1484 122.947 42.0605 122.662 41.959C122.381 41.8574 122.141 41.7344 121.941 41.5898C121.746 41.4453 121.596 41.2754 121.49 41.0801C121.385 40.8848 121.332 40.6562 121.332 40.3945C121.332 40.1445 121.387 39.9082 121.496 39.6855C121.609 39.4629 121.768 39.2656 121.971 39.0938C122.178 38.9219 122.426 38.7871 122.715 38.6895C123.004 38.5918 123.326 38.543 123.682 38.543C124.189 38.543 124.623 38.6328 124.982 38.8125C125.342 38.9922 125.617 39.2324 125.809 39.5332C126 39.8301 126.096 40.1602 126.096 40.5234H125.012C125.012 40.3477 124.959 40.1777 124.854 40.0137C124.752 39.8457 124.602 39.707 124.402 39.5977C124.207 39.4883 123.967 39.4336 123.682 39.4336C123.381 39.4336 123.137 39.4805 122.949 39.5742C122.766 39.6641 122.631 39.7793 122.545 39.9199C122.463 40.0605 122.422 40.209 122.422 40.3652C122.422 40.4824 122.441 40.5879 122.48 40.6816C122.523 40.7715 122.598 40.8555 122.703 40.9336C122.809 41.0078 122.957 41.0781 123.148 41.1445C123.34 41.2109 123.584 41.2773 123.881 41.3438C124.4 41.4609 124.828 41.6016 125.164 41.7656C125.5 41.9297 125.75 42.1309 125.914 42.3691C126.078 42.6074 126.16 42.8965 126.16 43.2363C126.16 43.5137 126.102 43.7676 125.984 43.998C125.871 44.2285 125.705 44.4277 125.486 44.5957C125.271 44.7598 125.014 44.8887 124.713 44.9824C124.416 45.0723 124.082 45.1172 123.711 45.1172C123.152 45.1172 122.68 45.0176 122.293 44.8184C121.906 44.6191 121.613 44.3613 121.414 44.0449C121.215 43.7285 121.115 43.3945 121.115 43.043H122.205C122.221 43.3398 122.307 43.5762 122.463 43.752C122.619 43.9238 122.811 44.0469 123.037 44.1211C123.264 44.1914 123.488 44.2266 123.711 44.2266C124.008 44.2266 124.256 44.1875 124.455 44.1094C124.658 44.0312 124.812 43.9238 124.918 43.7871C125.023 43.6504 125.076 43.4941 125.076 43.3184Z" fill="white"/>
</svg>
